<svg width="56" height="56" viewBox="0 0 56 56" fill="none" xmlns="http://www.w3.org/2000/svg">
<g clip-path="url(#clip0_160_714)">
<path d="M55.125 28C55.125 42.984 42.9797 55.125 28 55.125C13.0203 55.125 0.875 42.984 0.875 28C0.875 13.0247 13.0203 0.875 28 0.875C42.9797 0.875 55.125 13.0247 55.125 28ZM28 33.4688C25.2213 33.4688 22.9688 35.7213 22.9688 38.5C22.9688 41.2787 25.2213 43.5312 28 43.5312C30.7787 43.5312 33.0312 41.2787 33.0312 38.5C33.0312 35.7213 30.7787 33.4688 28 33.4688ZM23.2233 15.384L24.0346 30.259C24.0726 30.9551 24.6481 31.5 25.3451 31.5H30.6549C31.3519 31.5 31.9274 30.9551 31.9654 30.259L32.7767 15.384C32.8178 14.6322 32.2191 14 31.4662 14H24.5337C23.7808 14 23.1822 14.6322 23.2233 15.384Z" fill="#FF9800"/>
</g>
<defs>
<clipPath id="clip0_160_714">
<rect width="56" height="56" fill="white"/>
</clipPath>
</defs>
</svg>
